<svg version="1.1" id="Layer_1" xmlns="http://www.w3.org/2000/svg" xmlns:xlink="http://www.w3.org/1999/xlink" x="0px" y="0px"
	 width="100%" viewBox="0 0 4000 4000" enable-background="new 0 0 4000 4000" xml:space="preserve">
<path fill="#5A5BD8" opacity="1.000000" stroke="none" 
	d="
M1818.000000,4002.000000 
	C1212.000000,4002.000000 607.000000,4002.000000 2.000000,4002.000000 
	C2.000000,2668.666748 2.000000,1335.333374 2.000000,2.000000 
	C1335.333374,2.000000 2668.666748,2.000000 4002.000000,2.000000 
	C4002.000000,1335.333374 4002.000000,2668.666748 4002.000000,4002.000000 
	C3274.333252,4002.000000 2546.666748,4002.000000 1818.000000,4002.000000 
M2852.324707,2417.251709 
	C2852.148926,2416.176025 2851.973389,2415.100586 2851.814453,2412.272217 
	C2851.189453,2404.179932 2850.564453,2396.087891 2850.328369,2387.246094 
	C2850.124023,2386.175049 2849.919678,2385.104004 2849.616699,2382.383301 
	C2849.082764,2380.156494 2848.289795,2377.955811 2848.060791,2375.697998 
	C2847.195312,2367.172607 2846.934570,2358.566895 2845.691650,2350.102295 
	C2839.427490,2307.438232 2828.725586,2265.964111 2812.694092,2225.842773 
	C2789.711670,2168.326172 2754.141602,2119.238770 2712.663086,2073.921875 
	C2650.151367,2005.625488 2576.466064,1952.950684 2492.548584,1914.003418 
	C2382.092285,1862.739258 2268.255127,1820.271240 2152.767822,1782.069092 
	C2073.988770,1756.009888 1995.762939,1728.557373 1920.229370,1694.002563 
	C1886.283325,1678.473022 1852.646362,1662.240479 1822.080688,1640.509888 
	C1769.558105,1603.168701 1740.276611,1553.046631 1739.067017,1487.797485 
	C1738.443481,1454.150513 1742.540405,1421.205200 1756.327026,1390.162842 
	C1779.374634,1338.268188 1820.464966,1306.722656 1873.419434,1290.229736 
	C1932.303223,1271.890137 1992.222046,1272.896118 2050.943848,1289.564331 
	C2149.454102,1317.526489 2210.252197,1381.237061 2226.643555,1484.152832 
	C2228.090332,1493.237671 2229.012451,1502.405884 2230.258057,1512.158569 
	C2234.044189,1512.158569 2237.000244,1512.160767 2239.956299,1512.158325 
	C2433.924072,1511.997314 2627.892090,1511.835938 2821.859863,1511.649048 
	C2822.115967,1511.648682 2822.378906,1511.270508 2822.625488,1511.053955 
	C2822.871826,1510.837646 2823.101074,1510.602051 2823.528320,1510.192261 
	C2823.528320,1508.033081 2823.658447,1505.703247 2823.509521,1503.391357 
	C2819.705078,1444.367676 2810.824219,1386.203003 2794.024658,1329.378784 
	C2766.438477,1236.067993 2720.350342,1153.238525 2653.246338,1082.543579 
	C2577.332031,1002.566956 2486.135742,945.646790 2383.848877,905.795349 
	C2329.067383,884.452209 2272.572998,869.087646 2214.791016,858.423035 
	C2171.515381,850.435730 2127.954590,844.635864 2083.278320,841.626343 
	C2082.179688,841.710510 2081.081299,841.794678 2078.304688,841.707581 
	C2069.534912,841.159119 2060.765381,840.610718 2051.270264,839.620728 
	C2050.177734,839.728516 2049.084961,839.836304 2046.195068,839.799988 
	C2037.875732,839.371521 2029.561035,838.739929 2021.236206,838.546021 
	C1942.469727,836.711609 1864.002197,840.171570 1786.010010,851.975830 
	C1732.891602,860.015503 1680.666626,871.853271 1629.513794,888.361267 
	C1536.612793,918.342163 1451.305176,962.593750 1375.279541,1024.091675 
	C1293.683105,1090.095825 1233.195068,1171.531616 1196.833130,1270.351685 
	C1175.516479,1328.283813 1163.619751,1388.209961 1159.483643,1449.730469 
	C1154.495483,1523.925537 1157.612183,1597.597046 1174.235229,1670.336792 
	C1187.799316,1729.690796 1209.984131,1785.514038 1244.808350,1835.700317 
	C1280.151611,1886.634399 1322.089722,1931.664185 1369.788818,1971.322754 
	C1419.392090,2012.564697 1474.840454,2043.998169 1533.545898,2070.220459 
	C1638.359131,2117.038330 1746.535889,2154.587891 1856.221191,2187.994385 
	C1925.691895,2209.152832 1994.977905,2230.804932 2062.455078,2257.838867 
	C2114.451904,2278.670898 2162.851562,2305.394775 2205.843018,2341.805908 
	C2246.315186,2376.083008 2272.043213,2418.013428 2277.036133,2471.396973 
	C2280.759766,2511.208496 2276.437744,2549.986572 2259.010010,2586.493408 
	C2239.218018,2627.952393 2206.720947,2656.591797 2166.093506,2676.609131 
	C2132.796875,2693.014404 2097.265869,2701.387207 2060.472168,2704.693848 
	C2017.768555,2708.531250 1975.241821,2708.100098 1933.259277,2698.052246 
	C1870.399902,2683.008057 1819.408936,2650.295410 1783.216064,2596.114990 
	C1759.670532,2560.867188 1746.889160,2521.439941 1739.862183,2479.956055 
	C1738.212524,2470.217773 1736.851074,2460.430908 1735.369385,2450.748047 
	C1540.305664,2450.748047 1346.163086,2450.748047 1151.546997,2450.748047 
	C1151.546997,2454.452637 1151.471436,2457.417725 1151.558350,2460.378174 
	C1152.872437,2505.131348 1158.563354,2549.341797 1168.078857,2593.073975 
	C1192.773560,2706.565430 1245.492188,2805.150635 1325.215576,2889.530029 
	C1400.437622,2969.145264 1490.149414,3027.171631 1591.137939,3068.255371 
	C1701.751343,3113.254639 1817.367554,3135.967529 1936.149780,3143.863770 
	C1994.751221,3147.759766 2053.380371,3147.771484 2112.749268,3144.389160 
	C2113.826660,3144.208740 2114.903809,3144.028564 2117.693359,3143.859619 
	C2124.461426,3143.250488 2131.229492,3142.641602 2138.754150,3142.412842 
	C2139.827637,3142.206055 2140.901123,3141.999512 2143.670898,3141.762939 
	C2154.264160,3140.614746 2164.861572,3139.505127 2175.449707,3138.311768 
	C2228.162842,3132.370117 2280.083008,3122.328125 2331.026367,3107.525146 
	C2441.896240,3075.309082 2542.417969,3023.438965 2630.267334,2948.116455 
	C2710.720947,2879.135742 2769.962158,2794.932861 2808.535889,2696.215332 
	C2843.521973,2606.679443 2856.291260,2513.671387 2852.324707,2417.251709 
z"/>
<path fill="#FFFFFF" opacity="1.000000" stroke="none" 
	d="
M2083.993896,842.088074 
	C2127.954590,844.635864 2171.515381,850.435730 2214.791016,858.423035 
	C2272.572998,869.087646 2329.067383,884.452209 2383.848877,905.795349 
	C2486.135742,945.646790 2577.332031,1002.566956 2653.246338,1082.543579 
	C2720.350342,1153.238525 2766.438477,1236.067993 2794.024658,1329.378784 
	C2810.824219,1386.203003 2819.705078,1444.367676 2823.509521,1503.391357 
	C2823.658447,1505.703247 2823.528320,1508.033081 2823.528320,1510.192261 
	C2823.101074,1510.602051 2822.871826,1510.837646 2822.625488,1511.053955 
	C2822.378906,1511.270508 2822.115967,1511.648682 2821.859863,1511.649048 
	C2627.892090,1511.835938 2433.924072,1511.997314 2239.956299,1512.158325 
	C2237.000244,1512.160767 2234.044189,1512.158569 2230.258057,1512.158569 
	C2229.012451,1502.405884 2228.090332,1493.237671 2226.643555,1484.152832 
	C2210.252197,1381.237061 2149.454102,1317.526489 2050.943848,1289.564331 
	C1992.222046,1272.896118 1932.303223,1271.890137 1873.419434,1290.229736 
	C1820.464966,1306.722656 1779.374634,1338.268188 1756.327026,1390.162842 
	C1742.540405,1421.205200 1738.443481,1454.150513 1739.067017,1487.797485 
	C1740.276611,1553.046631 1769.558105,1603.168701 1822.080688,1640.509888 
	C1852.646362,1662.240479 1886.283325,1678.473022 1920.229370,1694.002563 
	C1995.762939,1728.557373 2073.988770,1756.009888 2152.767822,1782.069092 
	C2268.255127,1820.271240 2382.092285,1862.739258 2492.548584,1914.003418 
	C2576.466064,1952.950684 2650.151367,2005.625488 2712.663086,2073.921875 
	C2754.141602,2119.238770 2789.711670,2168.326172 2812.694092,2225.842773 
	C2828.725586,2265.964111 2839.427490,2307.438232 2845.691650,2350.102295 
	C2846.934570,2358.566895 2847.195312,2367.172607 2848.060791,2375.697998 
	C2848.289795,2377.955811 2849.082764,2380.156494 2849.462891,2383.582275 
	C2849.519287,2385.852783 2849.729248,2386.924072 2849.939453,2387.995605 
	C2850.564453,2396.087891 2851.189453,2404.179932 2851.591309,2413.517090 
	C2851.553711,2415.839600 2851.739502,2416.917236 2851.925537,2417.994873 
	C2856.291260,2513.671387 2843.521973,2606.679443 2808.535889,2696.215332 
	C2769.962158,2794.932861 2710.720947,2879.135742 2630.267334,2948.116455 
	C2542.417969,3023.438965 2441.896240,3075.309082 2331.026367,3107.525146 
	C2280.083008,3122.328125 2228.162842,3132.370117 2175.449707,3138.311768 
	C2164.861572,3139.505127 2154.264160,3140.614746 2142.447266,3141.574707 
	C2140.148193,3141.601807 2139.072754,3141.817139 2137.997559,3142.032471 
	C2131.229492,3142.641602 2124.461426,3143.250488 2116.467285,3143.638672 
	C2114.160645,3143.611084 2113.080322,3143.804688 2112.000000,3143.998291 
	C2053.380371,3147.771484 1994.751221,3147.759766 1936.149780,3143.863770 
	C1817.367554,3135.967529 1701.751343,3113.254639 1591.137939,3068.255371 
	C1490.149414,3027.171631 1400.437622,2969.145264 1325.215576,2889.530029 
	C1245.492188,2805.150635 1192.773560,2706.565430 1168.078857,2593.073975 
	C1158.563354,2549.341797 1152.872437,2505.131348 1151.558350,2460.378174 
	C1151.471436,2457.417725 1151.546997,2454.452637 1151.546997,2450.748047 
	C1346.163086,2450.748047 1540.305664,2450.748047 1735.369385,2450.748047 
	C1736.851074,2460.430908 1738.212524,2470.217773 1739.862183,2479.956055 
	C1746.889160,2521.439941 1759.670532,2560.867188 1783.216064,2596.114990 
	C1819.408936,2650.295410 1870.399902,2683.008057 1933.259277,2698.052246 
	C1975.241821,2708.100098 2017.768555,2708.531250 2060.472168,2704.693848 
	C2097.265869,2701.387207 2132.796875,2693.014404 2166.093506,2676.609131 
	C2206.720947,2656.591797 2239.218018,2627.952393 2259.010010,2586.493408 
	C2276.437744,2549.986572 2280.759766,2511.208496 2277.036133,2471.396973 
	C2272.043213,2418.013428 2246.315186,2376.083008 2205.843018,2341.805908 
	C2162.851562,2305.394775 2114.451904,2278.670898 2062.455078,2257.838867 
	C1994.977905,2230.804932 1925.691895,2209.152832 1856.221191,2187.994385 
	C1746.535889,2154.587891 1638.359131,2117.038330 1533.545898,2070.220459 
	C1474.840454,2043.998169 1419.392090,2012.564697 1369.788818,1971.322754 
	C1322.089722,1931.664185 1280.151611,1886.634399 1244.808350,1835.700317 
	C1209.984131,1785.514038 1187.799316,1729.690796 1174.235229,1670.336792 
	C1157.612183,1597.597046 1154.495483,1523.925537 1159.483643,1449.730469 
	C1163.619751,1388.209961 1175.516479,1328.283813 1196.833130,1270.351685 
	C1233.195068,1171.531616 1293.683105,1090.095825 1375.279541,1024.091675 
	C1451.305176,962.593750 1536.612793,918.342163 1629.513794,888.361267 
	C1680.666626,871.853271 1732.891602,860.015503 1786.010010,851.975830 
	C1864.002197,840.171570 1942.469727,836.711609 2021.236206,838.546021 
	C2029.561035,838.739929 2037.875732,839.371521 2047.452515,840.109863 
	C2049.805176,840.300537 2050.900391,840.181396 2051.995605,840.062256 
	C2060.765381,840.610718 2069.534912,841.159119 2079.497559,842.039917 
	C2081.791504,842.277527 2082.892822,842.182800 2083.993896,842.088074 
z"/>
<path fill="#BFBFEF" opacity="1.000000" stroke="none" 
	d="
M2051.632812,839.841492 
	C2050.900391,840.181396 2049.805176,840.300537 2048.351074,840.181885 
	C2049.084961,839.836304 2050.177734,839.728516 2051.632812,839.841492 
z"/>
<path fill="#BFBFEF" opacity="1.000000" stroke="none" 
	d="
M2083.636230,841.857178 
	C2082.892822,842.182800 2081.791504,842.277527 2080.336426,842.125549 
	C2081.081299,841.794678 2082.179688,841.710510 2083.636230,841.857178 
z"/>
<path fill="#BFBFEF" opacity="1.000000" stroke="none" 
	d="
M2850.133789,2387.620850 
	C2849.729248,2386.924072 2849.519287,2385.852783 2849.512207,2384.407227 
	C2849.919678,2385.104004 2850.124023,2386.175049 2850.133789,2387.620850 
z"/>
<path fill="#BFBFEF" opacity="1.000000" stroke="none" 
	d="
M2852.125000,2417.623291 
	C2851.739502,2416.917236 2851.553711,2415.839600 2851.583008,2414.393555 
	C2851.973389,2415.100586 2852.148926,2416.176025 2852.125000,2417.623291 
z"/>
<path fill="#BFBFEF" opacity="1.000000" stroke="none" 
	d="
M2138.375977,3142.222656 
	C2139.072754,3141.817139 2140.148193,3141.601807 2141.599121,3141.589600 
	C2140.901123,3141.999512 2139.827637,3142.206055 2138.375977,3142.222656 
z"/>
<path fill="#BFBFEF" opacity="1.000000" stroke="none" 
	d="
M2112.374512,3144.193848 
	C2113.080322,3143.804688 2114.160645,3143.611084 2115.611084,3143.632812 
	C2114.903809,3144.028564 2113.826660,3144.208740 2112.374512,3144.193848 
z"/>
</svg>